<?xml version="1.0" encoding="UTF-8" standalone="no"?>
<svg width="800px" height="450px" viewBox="0 0 800 450" version="1.1" xmlns="http://www.w3.org/2000/svg" xmlns:xlink="http://www.w3.org/1999/xlink">
    <!-- Generator: Sketch 47.1 (45422) - http://www.bohemiancoding.com/sketch -->
    
    <defs></defs>
    <g id="Page-1" stroke="none" stroke-width="1" fill="none" fill-rule="evenodd">
        <g id="Artboard-4">
            <rect id="Rectangle-2" fill="#000" x="0" y="0" width="400" height="250"></rect>
            <g id="Page-1" opacity="0.19688666" style="mix-blend-mode: screen;" transform="translate(305.000000, 107.000000)" fill="#FFFFFF">
                <g id="Group-3">
                    <path d="M94.8846677,172.693195 C64.3539159,172.693195 39.6299934,148.021397 39.6299934,117.555011 C39.6299934,87.0886258 64.3539159,62.4168274 94.8846677,62.4168274 C125.415419,62.4168274 150.139342,87.0886258 150.139342,117.555011 C150.139342,148.021397 125.415419,172.693195 94.8846677,172.693195 L94.8846677,172.693195 Z M152.833232,0.110082219 L101.769053,9.19025984 L101.350003,10.5044961 C98.775842,19.1665076 89.9758017,26.2753309 79.4396991,28.1272092 C69.023325,29.9790876 58.1280371,26.2753309 52.8599858,19.1067696 L52.0218868,17.9717474 L-0.000119728438,27.1714011 L36.9959677,234.99994 L89.0179742,225.800287 L89.4370238,224.48605 C92.0111852,215.824039 100.811225,208.715216 111.347328,206.863337 C121.884029,205.011459 132.599126,208.59574 137.986906,215.883777 L138.825005,217.018799 L189.889184,207.998359 L152.833232,0.110082219 Z" id="Fill-1"></path>
                </g>
                <path d="M122.92384,116.974675 L85.5815984,149.313073 C85.2213838,149.669747 84.7410978,149.848084 84.2608117,149.966975 C83.7805256,150.02642 83.3002396,150.02642 82.8199535,149.788638 C81.8593814,149.372519 81.198988,148.480835 81.0188808,147.47026 L72.0735528,97.4765229 C71.8334098,96.4659479 72.1936243,95.3959274 72.9740892,94.6825804 C73.6945183,94.0286789 74.7751619,93.7908966 75.735734,94.2070157 L122.083339,111.862355 C123.644269,112.516256 124.424734,114.299624 123.764341,115.845209 C123.524198,116.261328 123.284055,116.677447 122.92384,116.974675" id="Fill-4"></path>
        
            </g>
        </g>
    </g>
</svg>